<?xml version="1.0" standalone="no"?>
<!DOCTYPE svg PUBLIC "-//W3C//DTD SVG 20010904//EN"
 "http://www.w3.org/TR/2001/REC-SVG-20010904/DTD/svg10.dtd">
<svg version="1.0" xmlns="http://www.w3.org/2000/svg"
 width="256.000000pt" height="256.000000pt" viewBox="0 0 256.000000 256.000000"
 preserveAspectRatio="xMidYMid meet">
<metadata>
Created by potrace 1.11, written by Peter Selinger 2001-2013
</metadata>
<g transform="translate(0.000000,256.000000) scale(0.100000,-0.100000)"
fill="#000000" stroke="none">
<path d="M292 2094 c-137 -35 -233 -133 -278 -283 -20 -69 -20 -1008 1 -1078
37 -125 112 -206 236 -255 53 -21 63 -21 989 -24 591 -2 958 0 998 7 128 20
228 93 284 207 l33 67 3 435 c4 490 3 498 -62 566 -71 73 -172 89 -266 41
l-45 -23 -49 25 c-71 37 -148 35 -213 -5 -42 -26 -84 -73 -95 -106 -3 -8 -175
-14 -298 -9 -24 1 -25 3 -25 79 -1 114 -25 172 -106 253 -49 50 -80 72 -123
88 -141 53 -297 21 -403 -81 -41 -40 -44 -41 -115 -43 l-73 -1 -53 48 c-98 88
-223 122 -340 92z"/>
</g>
</svg>
